<svg xmlns="http://www.w3.org/2000/svg" xmlns:xlink="http://www.w3.org/1999/xlink" width="158" zoomAndPan="magnify" viewBox="0 0 118.5 35.25" height="47" preserveAspectRatio="xMidYMid meet" version="1.0"><defs><g/><clipPath id="id1"><path d="M 2.832031 2.863281 L 32.332031 2.863281 L 32.332031 31.625 L 2.832031 31.625 Z M 2.832031 2.863281 " clip-rule="nonzero"/></clipPath></defs><g clip-path="url(#id1)"><path fill="rgb(0%, 0%, 0%)" d="M 32.296875 4.164062 C 32.300781 4.171875 32.304688 4.179688 32.3125 4.191406 C 32.222656 4.289062 32.132812 4.390625 32.042969 4.492188 C 31.355469 5.292969 30.871094 6.199219 30.65625 7.238281 C 30.5625 7.6875 30.554688 8.140625 30.582031 8.59375 C 30.59375 8.835938 30.601562 9.074219 30.617188 9.3125 C 30.636719 9.695312 30.667969 10.082031 30.6875 10.464844 C 30.714844 11 30.742188 11.535156 30.710938 12.070312 C 30.667969 12.867188 30.511719 13.644531 30.246094 14.398438 C 29.882812 15.421875 29.363281 16.359375 28.648438 17.179688 C 28.375 17.496094 28.066406 17.785156 27.777344 18.082031 C 27.757812 18.101562 27.738281 18.121094 27.714844 18.144531 C 27.816406 18.226562 27.914062 18.304688 28.011719 18.386719 C 28.46875 18.796875 28.839844 19.261719 29.039062 19.851562 C 29.179688 20.265625 29.148438 20.667969 28.984375 21.066406 C 28.980469 21.078125 28.972656 21.085938 28.964844 21.101562 C 28.933594 21.082031 28.902344 21.0625 28.875 21.046875 C 28.730469 20.953125 28.589844 20.863281 28.449219 20.769531 C 28.195312 20.609375 27.929688 20.589844 27.640625 20.65625 C 27.101562 20.773438 26.636719 21.039062 26.207031 21.375 C 25.921875 21.601562 25.648438 21.84375 25.347656 22.042969 C 24.753906 22.441406 24.09375 22.683594 23.378906 22.738281 C 22.804688 22.78125 22.230469 22.75 21.675781 22.578125 C 21.578125 22.546875 21.484375 22.492188 21.382812 22.460938 C 21.339844 22.445312 21.289062 22.433594 21.246094 22.441406 C 20.644531 22.566406 20.117188 22.832031 19.683594 23.273438 C 19.273438 23.695312 19.015625 24.195312 18.953125 24.785156 C 18.941406 24.925781 18.941406 25.070312 18.9375 25.210938 C 18.925781 25.660156 18.925781 26.109375 18.898438 26.558594 C 18.847656 27.464844 18.75 28.367188 18.519531 29.25 C 18.390625 29.738281 18.226562 30.214844 17.941406 30.636719 C 17.910156 30.6875 17.871094 30.730469 17.839844 30.78125 C 17.796875 30.839844 17.816406 30.882812 17.882812 30.894531 C 17.917969 30.902344 17.953125 30.902344 17.984375 30.902344 C 18.257812 30.902344 18.535156 30.902344 18.808594 30.902344 C 18.964844 30.90625 19.125 30.921875 19.285156 30.914062 C 19.792969 30.898438 20.296875 30.875 20.804688 30.859375 C 21.097656 30.855469 21.390625 30.863281 21.679688 30.871094 C 21.765625 30.875 21.847656 30.902344 21.898438 30.984375 C 21.980469 31.125 21.910156 31.308594 21.730469 31.371094 C 21.597656 31.414062 21.457031 31.445312 21.316406 31.453125 C 21.046875 31.472656 20.773438 31.484375 20.503906 31.484375 C 20.167969 31.484375 19.832031 31.476562 19.496094 31.472656 C 19.425781 31.472656 19.355469 31.496094 19.285156 31.507812 C 19.15625 31.519531 19.027344 31.546875 18.894531 31.546875 C 18.640625 31.546875 18.386719 31.539062 18.136719 31.519531 C 17.941406 31.507812 17.75 31.476562 17.558594 31.449219 C 17.464844 31.4375 17.390625 31.394531 17.332031 31.316406 C 17.246094 31.210938 17.148438 31.117188 17.070312 31.007812 C 16.996094 30.902344 16.992188 30.796875 17.085938 30.6875 C 17.371094 30.359375 17.488281 29.949219 17.632812 29.550781 C 17.824219 29.007812 17.929688 28.445312 17.988281 27.875 C 18.035156 27.417969 18.070312 26.957031 18.097656 26.496094 C 18.117188 26.148438 18.121094 25.800781 18.128906 25.457031 C 18.132812 25.257812 18.070312 25.167969 17.882812 25.09375 C 17.699219 25.015625 17.671875 25.035156 17.671875 25.234375 C 17.671875 25.632812 17.675781 26.03125 17.667969 26.429688 C 17.652344 27.113281 17.613281 27.792969 17.488281 28.46875 C 17.378906 29.054688 17.222656 29.625 16.941406 30.152344 C 16.613281 30.757812 16.15625 31.230469 15.511719 31.492188 C 15.351562 31.558594 15.164062 31.585938 14.992188 31.589844 C 14.335938 31.609375 13.679688 31.617188 13.023438 31.625 C 12.898438 31.625 12.773438 31.621094 12.648438 31.609375 C 12.503906 31.59375 12.378906 31.535156 12.289062 31.421875 C 12.253906 31.375 12.238281 31.304688 12.238281 31.242188 C 12.238281 31.105469 12.296875 30.980469 12.394531 30.886719 C 12.433594 30.851562 12.503906 30.832031 12.5625 30.828125 C 12.757812 30.8125 12.957031 30.800781 13.152344 30.796875 C 13.390625 30.789062 13.625 30.78125 13.859375 30.78125 C 13.980469 30.785156 14.101562 30.816406 14.222656 30.808594 C 14.566406 30.785156 14.914062 30.757812 15.261719 30.722656 C 15.382812 30.710938 15.5 30.6875 15.617188 30.664062 C 15.699219 30.648438 15.757812 30.605469 15.808594 30.535156 C 16.261719 29.933594 16.5625 29.257812 16.757812 28.53125 C 16.886719 28.050781 16.964844 27.5625 16.996094 27.0625 C 17.035156 26.335938 17.007812 25.621094 16.804688 24.914062 C 16.671875 24.449219 16.480469 24.007812 16.164062 23.628906 C 15.953125 23.378906 15.691406 23.207031 15.414062 23.039062 C 15.003906 22.800781 14.605469 22.542969 14.199219 22.296875 C 14.175781 22.28125 14.125 22.28125 14.097656 22.292969 C 13.820312 22.4375 13.527344 22.539062 13.214844 22.5625 C 12.980469 22.582031 12.742188 22.585938 12.507812 22.570312 C 12.019531 22.535156 11.550781 22.40625 11.097656 22.21875 C 10.703125 22.054688 10.339844 21.835938 9.992188 21.585938 C 9.523438 21.246094 9.015625 20.976562 8.445312 20.839844 C 7.945312 20.722656 7.476562 20.769531 7.046875 21.070312 C 6.992188 21.109375 6.972656 21.082031 6.949219 21.035156 C 6.75 20.667969 6.8125 20.304688 6.960938 19.949219 C 7.152344 19.480469 7.46875 19.097656 7.855469 18.773438 C 8.109375 18.558594 8.394531 18.378906 8.664062 18.179688 C 8.675781 18.171875 8.6875 18.160156 8.699219 18.148438 C 8.511719 18.058594 8.328125 17.976562 8.15625 17.882812 C 7.851562 17.71875 7.574219 17.515625 7.316406 17.285156 C 6.605469 16.644531 6.113281 15.851562 5.71875 14.992188 C 5.375 14.238281 5.128906 13.453125 4.984375 12.636719 C 4.902344 12.1875 4.84375 11.730469 4.804688 11.273438 C 4.769531 10.871094 4.765625 10.464844 4.757812 10.058594 C 4.742188 9.171875 4.652344 8.296875 4.429688 7.4375 C 4.171875 6.453125 3.777344 5.53125 3.203125 4.6875 C 3.105469 4.539062 2.996094 4.398438 2.886719 4.253906 C 2.84375 4.199219 2.847656 4.167969 2.902344 4.125 C 3.125 3.972656 3.371094 3.894531 3.636719 3.867188 C 4.261719 3.808594 4.875 3.886719 5.480469 4.046875 C 6.546875 4.328125 7.484375 4.855469 8.328125 5.558594 C 8.957031 6.085938 9.488281 6.695312 9.953125 7.367188 C 9.96875 7.390625 9.984375 7.410156 10.019531 7.433594 C 10.058594 7.222656 10.105469 7.015625 10.136719 6.804688 C 10.214844 6.292969 10.097656 5.808594 9.902344 5.339844 C 9.660156 4.765625 9.320312 4.25 8.941406 3.761719 C 8.929688 3.746094 8.917969 3.734375 8.910156 3.71875 C 8.90625 3.710938 8.90625 3.703125 8.902344 3.691406 C 9.015625 3.613281 9.144531 3.578125 9.277344 3.546875 C 9.496094 3.496094 9.714844 3.519531 9.933594 3.535156 C 10.390625 3.574219 10.832031 3.671875 11.261719 3.824219 C 11.878906 4.046875 12.4375 4.363281 12.960938 4.753906 C 13.296875 5 13.609375 5.277344 13.898438 5.578125 C 14.40625 6.101562 14.828125 6.6875 15.191406 7.316406 C 15.214844 7.355469 15.238281 7.390625 15.261719 7.433594 C 15.277344 7.414062 15.289062 7.402344 15.296875 7.386719 C 15.699219 6.511719 16.167969 5.675781 16.679688 4.859375 C 17.082031 4.210938 17.507812 3.578125 17.921875 2.933594 C 17.972656 2.863281 17.980469 2.863281 18.039062 2.933594 C 18.425781 3.421875 18.761719 3.945312 19.054688 4.492188 C 19.363281 5.0625 19.652344 5.644531 19.945312 6.222656 C 20.019531 6.375 20.085938 6.53125 20.15625 6.683594 C 20.167969 6.714844 20.183594 6.742188 20.207031 6.785156 C 20.238281 6.742188 20.265625 6.714844 20.289062 6.679688 C 20.636719 6.179688 21.023438 5.710938 21.460938 5.285156 C 22.070312 4.691406 22.746094 4.1875 23.515625 3.824219 C 23.964844 3.613281 24.429688 3.453125 24.917969 3.375 C 25.054688 3.351562 25.199219 3.363281 25.335938 3.382812 C 25.527344 3.414062 25.714844 3.464844 25.898438 3.511719 C 25.910156 3.511719 25.921875 3.519531 25.941406 3.53125 C 25.925781 3.5625 25.914062 3.59375 25.898438 3.621094 C 25.640625 4.113281 25.421875 4.621094 25.285156 5.160156 C 25.171875 5.609375 25.132812 6.0625 25.160156 6.527344 C 25.179688 6.867188 25.214844 7.207031 25.289062 7.542969 C 25.292969 7.558594 25.296875 7.570312 25.308594 7.601562 C 25.332031 7.5625 25.347656 7.539062 25.363281 7.511719 C 25.761719 6.832031 26.242188 6.214844 26.820312 5.679688 C 27.292969 5.238281 27.8125 4.863281 28.382812 4.5625 C 28.925781 4.277344 29.492188 4.066406 30.09375 3.953125 C 30.519531 3.871094 30.941406 3.832031 31.371094 3.855469 C 31.6875 3.871094 31.988281 3.941406 32.25 4.128906 C 32.265625 4.140625 32.28125 4.152344 32.296875 4.164062 Z M 30.996094 4.691406 C 30.976562 4.691406 30.964844 4.6875 30.957031 4.6875 C 30.894531 4.691406 30.828125 4.695312 30.765625 4.699219 C 30.171875 4.726562 29.609375 4.875 29.074219 5.121094 C 28.191406 5.535156 27.453125 6.136719 26.828125 6.875 C 26.355469 7.433594 25.976562 8.046875 25.667969 8.707031 C 25.640625 8.761719 25.636719 8.8125 25.652344 8.867188 C 25.867188 9.71875 26.046875 10.574219 26.15625 11.445312 C 26.230469 12.019531 26.28125 12.597656 26.257812 13.183594 C 26.246094 13.539062 26.226562 13.902344 26.179688 14.257812 C 26.085938 14.976562 25.878906 15.664062 25.566406 16.320312 C 25.25 16.988281 24.828125 17.585938 24.269531 18.085938 C 24.253906 18.101562 24.238281 18.117188 24.222656 18.136719 C 24.238281 18.144531 24.242188 18.152344 24.253906 18.15625 C 24.835938 18.335938 25.421875 18.355469 26.007812 18.164062 C 26.554688 17.984375 27.015625 17.667969 27.429688 17.273438 C 27.859375 16.863281 28.214844 16.394531 28.53125 15.894531 C 28.929688 15.273438 29.238281 14.609375 29.445312 13.902344 C 29.585938 13.425781 29.6875 12.941406 29.714844 12.445312 C 29.738281 12.046875 29.75 11.644531 29.742188 11.246094 C 29.730469 10.816406 29.695312 10.390625 29.671875 9.960938 C 29.652344 9.679688 29.636719 9.394531 29.621094 9.113281 C 29.59375 8.613281 29.570312 8.109375 29.636719 7.609375 C 29.757812 6.691406 30.082031 5.859375 30.644531 5.117188 C 30.753906 4.972656 30.875 4.839844 30.996094 4.691406 Z M 27.984375 19.933594 C 27.972656 19.886719 27.960938 19.851562 27.945312 19.816406 C 27.914062 19.746094 27.878906 19.675781 27.839844 19.605469 C 27.691406 19.328125 27.488281 19.097656 27.210938 18.941406 C 27.015625 18.832031 26.8125 18.777344 26.585938 18.847656 C 26.261719 18.945312 25.933594 19.027344 25.601562 19.105469 C 25.28125 19.179688 24.957031 19.261719 24.628906 19.289062 C 24.230469 19.328125 23.832031 19.300781 23.4375 19.230469 C 23.304688 19.207031 23.175781 19.152344 23.046875 19.148438 C 22.632812 19.132812 22.242188 19.234375 21.875 19.421875 C 21.828125 19.449219 21.828125 19.46875 21.851562 19.519531 C 21.925781 19.65625 22.011719 19.789062 22.050781 19.9375 C 22.175781 20.390625 22.140625 20.847656 22.015625 21.296875 C 21.972656 21.453125 21.894531 21.597656 21.832031 21.753906 C 21.867188 21.761719 21.910156 21.78125 21.949219 21.785156 C 22.238281 21.824219 22.527344 21.871094 22.816406 21.898438 C 23.105469 21.925781 23.398438 21.921875 23.683594 21.867188 C 24.300781 21.75 24.828125 21.460938 25.300781 21.058594 C 25.742188 20.679688 26.207031 20.34375 26.753906 20.125 C 27.097656 19.984375 27.453125 19.894531 27.828125 19.917969 C 27.878906 19.921875 27.925781 19.929688 27.984375 19.933594 Z M 25.449219 13.648438 C 25.449219 13.101562 25.429688 12.550781 25.386719 12.003906 C 25.355469 11.5625 25.296875 11.121094 25.214844 10.6875 C 25.15625 10.355469 25.039062 10.035156 24.960938 9.710938 C 24.816406 9.113281 24.667969 8.519531 24.539062 7.921875 C 24.425781 7.382812 24.320312 6.84375 24.34375 6.289062 C 24.359375 5.871094 24.4375 5.460938 24.578125 5.0625 C 24.640625 4.886719 24.71875 4.71875 24.792969 4.535156 C 24.753906 4.535156 24.71875 4.53125 24.6875 4.535156 C 23.996094 4.625 23.371094 4.886719 22.796875 5.28125 C 22.347656 5.589844 21.945312 5.953125 21.589844 6.363281 C 21.261719 6.738281 20.976562 7.144531 20.730469 7.574219 C 20.714844 7.605469 20.714844 7.660156 20.730469 7.695312 C 20.90625 8.058594 21.097656 8.417969 21.269531 8.785156 C 21.621094 9.546875 21.910156 10.328125 22.117188 11.140625 C 22.34375 12.023438 22.410156 12.925781 22.4375 13.832031 C 22.460938 14.53125 22.433594 15.230469 22.332031 15.925781 C 22.296875 16.160156 22.261719 16.402344 22.175781 16.625 C 21.894531 17.363281 21.507812 18.046875 21.074219 18.707031 C 21.0625 18.730469 21.050781 18.753906 21.027344 18.792969 C 21.09375 18.78125 21.136719 18.777344 21.175781 18.773438 C 21.808594 18.703125 22.398438 18.503906 22.941406 18.175781 C 23.78125 17.660156 24.410156 16.949219 24.863281 16.082031 C 25.261719 15.320312 25.449219 14.503906 25.449219 13.648438 Z M 21.453125 15.992188 C 21.585938 15.464844 21.632812 14.929688 21.625 14.382812 C 21.617188 13.871094 21.578125 13.363281 21.507812 12.859375 C 21.382812 11.972656 21.167969 11.109375 20.886719 10.265625 C 20.511719 9.136719 20.03125 8.054688 19.472656 7.003906 C 19.035156 6.183594 18.554688 5.390625 18.035156 4.617188 C 18.019531 4.59375 18 4.574219 17.976562 4.539062 C 17.949219 4.578125 17.929688 4.601562 17.914062 4.628906 C 17.726562 4.910156 17.539062 5.1875 17.355469 5.472656 C 16.832031 6.289062 16.34375 7.128906 15.898438 7.992188 C 15.5 8.773438 15.140625 9.566406 14.835938 10.386719 C 14.457031 11.40625 14.164062 12.445312 14.050781 13.527344 C 13.996094 14.066406 13.988281 14.601562 14.054688 15.140625 C 14.15625 15.96875 14.4375 16.726562 14.921875 17.414062 C 15.285156 17.921875 15.714844 18.363281 16.265625 18.671875 C 17.035156 19.109375 17.855469 19.230469 18.714844 19.035156 C 19.371094 18.882812 19.898438 18.523438 20.347656 18.03125 C 20.882812 17.441406 21.253906 16.761719 21.453125 15.992188 Z M 20.640625 21.800781 C 21.179688 21.414062 21.441406 20.835938 21.25 20.175781 C 21.175781 19.917969 21.035156 19.703125 20.816406 19.542969 C 20.738281 19.488281 20.664062 19.457031 20.566406 19.507812 C 20.503906 19.542969 20.429688 19.558594 20.359375 19.582031 C 19.746094 19.789062 19.117188 19.917969 18.46875 19.953125 C 18.050781 19.972656 17.628906 19.957031 17.210938 19.914062 C 16.566406 19.847656 15.941406 19.710938 15.332031 19.492188 C 15.296875 19.480469 15.238281 19.480469 15.210938 19.503906 C 15.117188 19.578125 15.019531 19.648438 14.945312 19.742188 C 14.71875 20.039062 14.652344 20.386719 14.636719 20.785156 C 14.644531 20.835938 14.648438 20.921875 14.664062 21.003906 C 14.761719 21.480469 15.058594 21.820312 15.453125 22.089844 C 15.769531 22.300781 16.085938 22.503906 16.394531 22.726562 C 16.667969 22.929688 16.902344 23.167969 17.074219 23.46875 C 17.203125 23.695312 17.386719 23.871094 17.632812 23.972656 C 17.851562 24.066406 18.070312 24.089844 18.269531 23.921875 C 18.40625 23.804688 18.527344 23.671875 18.613281 23.515625 C 18.6875 23.378906 18.75 23.234375 18.820312 23.097656 C 18.933594 22.871094 19.105469 22.691406 19.296875 22.53125 C 19.535156 22.335938 19.796875 22.171875 20.085938 22.066406 C 20.28125 21.996094 20.46875 21.917969 20.640625 21.800781 Z M 14.570312 8.578125 C 14.605469 8.496094 14.621094 8.425781 14.5625 8.347656 C 14.519531 8.292969 14.492188 8.230469 14.457031 8.171875 C 13.871094 7.1875 13.191406 6.277344 12.335938 5.511719 C 11.90625 5.128906 11.4375 4.796875 10.902344 4.578125 C 10.683594 4.488281 10.457031 4.429688 10.234375 4.355469 C 10.230469 4.367188 10.226562 4.375 10.222656 4.386719 C 10.230469 4.398438 10.242188 4.414062 10.25 4.429688 C 10.511719 4.726562 10.679688 5.078125 10.789062 5.453125 C 11.011719 6.199219 11.03125 6.960938 10.886719 7.722656 C 10.804688 8.15625 10.695312 8.585938 10.585938 9.011719 C 10.417969 9.660156 10.371094 10.320312 10.347656 10.980469 C 10.335938 11.367188 10.351562 11.753906 10.359375 12.136719 C 10.371094 12.570312 10.429688 13 10.515625 13.425781 C 10.785156 14.75 11.332031 15.941406 12.234375 16.960938 C 12.765625 17.5625 13.402344 18.011719 14.152344 18.308594 C 14.292969 18.363281 14.4375 18.40625 14.597656 18.460938 C 14.582031 18.429688 14.578125 18.421875 14.570312 18.414062 C 14.015625 17.714844 13.664062 16.914062 13.449219 16.054688 C 13.242188 15.226562 13.152344 14.386719 13.203125 13.535156 C 13.21875 13.242188 13.246094 12.949219 13.289062 12.660156 C 13.398438 11.894531 13.59375 11.148438 13.855469 10.421875 C 14.074219 9.800781 14.328125 9.191406 14.570312 8.578125 Z M 14.074219 19.429688 C 14.140625 19.332031 14.214844 19.242188 14.289062 19.140625 C 14.105469 19.089844 13.933594 19.050781 13.765625 19 C 13.253906 18.839844 12.773438 18.617188 12.304688 18.355469 C 12.273438 18.339844 12.222656 18.324219 12.191406 18.335938 C 11.761719 18.492188 11.316406 18.597656 10.859375 18.632812 C 10.738281 18.640625 10.617188 18.65625 10.5 18.640625 C 10.257812 18.601562 10.015625 18.542969 9.777344 18.5 C 9.730469 18.492188 9.671875 18.5 9.628906 18.519531 C 9.285156 18.6875 8.960938 18.886719 8.671875 19.136719 C 8.402344 19.363281 8.164062 19.621094 8.015625 19.945312 C 7.996094 19.992188 7.980469 20.039062 7.957031 20.097656 C 8.003906 20.085938 8.027344 20.078125 8.050781 20.070312 C 8.238281 20.015625 8.429688 19.996094 8.621094 20.015625 C 9.050781 20.0625 9.453125 20.199219 9.816406 20.433594 C 10.058594 20.589844 10.285156 20.78125 10.523438 20.945312 C 11.292969 21.488281 12.136719 21.792969 13.085938 21.738281 C 13.3125 21.722656 13.53125 21.65625 13.757812 21.609375 C 13.808594 21.601562 13.820312 21.570312 13.804688 21.519531 C 13.78125 21.457031 13.761719 21.390625 13.753906 21.328125 C 13.722656 21.019531 13.695312 20.710938 13.664062 20.398438 C 13.648438 20.226562 13.695312 20.0625 13.777344 19.914062 C 13.871094 19.75 13.972656 19.589844 14.074219 19.429688 Z M 11.238281 17.542969 C 11.300781 17.53125 11.359375 17.507812 11.429688 17.484375 C 11.339844 17.382812 11.257812 17.296875 11.179688 17.207031 C 10.726562 16.664062 10.390625 16.054688 10.128906 15.40625 C 9.628906 14.160156 9.414062 12.859375 9.375 11.527344 C 9.363281 11.238281 9.371094 10.945312 9.386719 10.65625 C 9.402344 10.351562 9.429688 10.042969 9.46875 9.742188 C 9.53125 9.28125 9.605469 8.824219 9.671875 8.363281 C 9.675781 8.324219 9.667969 8.273438 9.644531 8.242188 C 9.339844 7.792969 8.992188 7.378906 8.613281 6.988281 C 8.21875 6.582031 7.785156 6.21875 7.3125 5.902344 C 6.871094 5.605469 6.40625 5.355469 5.902344 5.171875 C 5.476562 5.015625 5.035156 4.914062 4.582031 4.875 C 4.441406 4.859375 4.304688 4.855469 4.140625 4.847656 C 4.242188 4.988281 4.324219 5.101562 4.402344 5.222656 C 4.769531 5.792969 5.015625 6.417969 5.203125 7.0625 C 5.476562 7.988281 5.613281 8.929688 5.675781 9.886719 C 5.707031 10.347656 5.707031 10.8125 5.726562 11.273438 C 5.742188 11.585938 5.75 11.902344 5.789062 12.21875 C 5.90625 13.132812 6.210938 13.984375 6.667969 14.785156 C 6.960938 15.296875 7.300781 15.773438 7.695312 16.207031 C 8.113281 16.671875 8.585938 17.074219 9.160156 17.339844 C 9.828125 17.652344 10.519531 17.726562 11.238281 17.542969 Z M 11.238281 17.542969 " fill-opacity="1" fill-rule="nonzero"/></g><path fill="rgb(100%, 39.99939%, 0%)" d="M 30.957031 4.6875 C 30.964844 4.6875 30.976562 4.6875 30.996094 4.691406 C 30.875 4.839844 30.753906 4.972656 30.644531 5.117188 C 30.082031 5.855469 29.753906 6.691406 29.636719 7.609375 C 29.570312 8.109375 29.59375 8.609375 29.621094 9.113281 C 29.636719 9.394531 29.652344 9.679688 29.667969 9.960938 C 29.695312 10.386719 29.730469 10.816406 29.738281 11.242188 C 29.746094 11.644531 29.738281 12.042969 29.714844 12.445312 C 29.6875 12.9375 29.585938 13.425781 29.445312 13.898438 C 29.238281 14.609375 28.925781 15.269531 28.53125 15.894531 C 28.214844 16.394531 27.859375 16.863281 27.425781 17.273438 C 27.015625 17.667969 26.554688 17.984375 26.007812 18.164062 C 25.421875 18.351562 24.835938 18.335938 24.253906 18.15625 C 24.242188 18.152344 24.234375 18.144531 24.222656 18.136719 C 24.238281 18.117188 24.25 18.097656 24.269531 18.082031 C 24.824219 17.585938 25.25 16.988281 25.566406 16.316406 C 25.878906 15.660156 26.085938 14.972656 26.179688 14.253906 C 26.226562 13.898438 26.246094 13.539062 26.257812 13.179688 C 26.28125 12.597656 26.230469 12.019531 26.15625 11.441406 C 26.046875 10.574219 25.867188 9.714844 25.648438 8.867188 C 25.636719 8.808594 25.640625 8.761719 25.664062 8.707031 C 25.976562 8.046875 26.355469 7.429688 26.828125 6.871094 C 27.453125 6.136719 28.191406 5.53125 29.074219 5.121094 C 29.609375 4.875 30.171875 4.726562 30.765625 4.699219 C 30.828125 4.695312 30.894531 4.691406 30.957031 4.6875 Z M 30.957031 4.6875 " fill-opacity="1" fill-rule="nonzero"/><path fill="rgb(1.959229%, 45.878601%, 0.389099%)" d="M 27.945312 19.816406 C 27.960938 19.851562 27.972656 19.886719 27.984375 19.933594 C 27.925781 19.929688 27.878906 19.921875 27.832031 19.921875 C 27.453125 19.898438 27.097656 19.984375 26.753906 20.125 C 26.207031 20.347656 25.742188 20.683594 25.300781 21.0625 C 24.832031 21.464844 24.300781 21.753906 23.683594 21.871094 C 23.398438 21.925781 23.109375 21.925781 22.820312 21.898438 C 22.527344 21.875 22.238281 21.828125 21.949219 21.789062 C 21.910156 21.78125 21.867188 21.765625 21.832031 21.757812 C 21.898438 21.601562 21.972656 21.453125 22.015625 21.296875 C 22.140625 20.851562 22.179688 20.394531 22.050781 19.9375 C 22.011719 19.792969 21.925781 19.65625 21.851562 19.519531 C 21.828125 19.472656 21.828125 19.449219 21.878906 19.425781 C 22.242188 19.238281 22.632812 19.132812 23.046875 19.148438 C 23.175781 19.152344 23.304688 19.207031 23.4375 19.230469 C 23.832031 19.300781 24.234375 19.328125 24.628906 19.292969 C 24.957031 19.261719 25.28125 19.179688 25.601562 19.105469 C 25.933594 19.03125 26.261719 18.949219 26.585938 18.851562 C 26.816406 18.78125 27.015625 18.832031 27.210938 18.941406 C 27.488281 19.097656 27.691406 19.328125 27.839844 19.605469 C 27.878906 19.675781 27.914062 19.746094 27.945312 19.816406 Z M 27.945312 19.816406 " fill-opacity="1" fill-rule="nonzero"/><path fill="rgb(100%, 39.99939%, 0%)" d="M 25.386719 12.003906 C 25.429688 12.550781 25.449219 13.101562 25.449219 13.648438 C 25.449219 14.503906 25.261719 15.320312 24.863281 16.082031 C 24.410156 16.949219 23.78125 17.660156 22.941406 18.171875 C 22.398438 18.503906 21.808594 18.699219 21.175781 18.773438 C 21.136719 18.777344 21.09375 18.78125 21.027344 18.789062 C 21.050781 18.75 21.0625 18.726562 21.074219 18.707031 C 21.507812 18.046875 21.894531 17.363281 22.175781 16.625 C 22.257812 16.402344 22.296875 16.160156 22.332031 15.921875 C 22.433594 15.230469 22.460938 14.53125 22.4375 13.832031 C 22.410156 12.925781 22.34375 12.019531 22.117188 11.140625 C 21.910156 10.328125 21.621094 9.542969 21.269531 8.785156 C 21.097656 8.417969 20.90625 8.058594 20.730469 7.691406 C 20.710938 7.660156 20.710938 7.605469 20.730469 7.574219 C 20.976562 7.144531 21.261719 6.738281 21.589844 6.363281 C 21.945312 5.949219 22.347656 5.589844 22.796875 5.28125 C 23.371094 4.886719 23.996094 4.625 24.6875 4.535156 C 24.71875 4.53125 24.753906 4.535156 24.792969 4.535156 C 24.71875 4.71875 24.640625 4.886719 24.578125 5.0625 C 24.4375 5.457031 24.359375 5.867188 24.34375 6.289062 C 24.320312 6.84375 24.425781 7.382812 24.539062 7.917969 C 24.667969 8.519531 24.816406 9.113281 24.960938 9.707031 C 25.039062 10.035156 25.15625 10.355469 25.214844 10.683594 C 25.296875 11.121094 25.355469 11.5625 25.386719 12.003906 Z M 25.386719 12.003906 " fill-opacity="1" fill-rule="nonzero"/><path fill="rgb(100%, 39.99939%, 0%)" d="M 21.625 14.382812 C 21.632812 14.925781 21.585938 15.464844 21.453125 15.992188 C 21.253906 16.761719 20.882812 17.441406 20.347656 18.03125 C 19.898438 18.523438 19.371094 18.882812 18.714844 19.03125 C 17.855469 19.226562 17.035156 19.105469 16.265625 18.671875 C 15.714844 18.359375 15.28125 17.921875 14.921875 17.410156 C 14.4375 16.726562 14.152344 15.964844 14.050781 15.136719 C 13.988281 14.601562 13.996094 14.0625 14.050781 13.527344 C 14.164062 12.441406 14.457031 11.402344 14.835938 10.386719 C 15.140625 9.566406 15.5 8.769531 15.898438 7.992188 C 16.34375 7.128906 16.832031 6.289062 17.355469 5.472656 C 17.539062 5.1875 17.726562 4.910156 17.914062 4.625 C 17.929688 4.601562 17.949219 4.578125 17.976562 4.539062 C 18 4.574219 18.015625 4.59375 18.03125 4.617188 C 18.554688 5.386719 19.035156 6.183594 19.472656 7.003906 C 20.03125 8.054688 20.511719 9.136719 20.886719 10.261719 C 21.167969 11.109375 21.382812 11.972656 21.507812 12.859375 C 21.578125 13.367188 21.617188 13.871094 21.625 14.382812 Z M 21.625 14.382812 " fill-opacity="1" fill-rule="nonzero"/><path fill="rgb(1.959229%, 45.878601%, 0.389099%)" d="M 21.25 20.175781 C 21.441406 20.835938 21.179688 21.414062 20.640625 21.800781 C 20.46875 21.921875 20.28125 21.996094 20.085938 22.066406 C 19.796875 22.175781 19.539062 22.335938 19.296875 22.535156 C 19.105469 22.695312 18.9375 22.875 18.820312 23.097656 C 18.75 23.238281 18.6875 23.378906 18.613281 23.515625 C 18.527344 23.675781 18.40625 23.808594 18.269531 23.925781 C 18.070312 24.09375 17.851562 24.066406 17.632812 23.976562 C 17.386719 23.875 17.203125 23.695312 17.074219 23.46875 C 16.902344 23.167969 16.667969 22.929688 16.394531 22.730469 C 16.085938 22.507812 15.769531 22.304688 15.453125 22.089844 C 15.058594 21.824219 14.765625 21.484375 14.664062 21.003906 C 14.648438 20.921875 14.644531 20.835938 14.636719 20.789062 C 14.652344 20.390625 14.722656 20.039062 14.949219 19.746094 C 15.019531 19.652344 15.117188 19.578125 15.214844 19.503906 C 15.242188 19.484375 15.296875 19.480469 15.332031 19.496094 C 15.941406 19.714844 16.570312 19.847656 17.210938 19.914062 C 17.628906 19.957031 18.050781 19.976562 18.46875 19.953125 C 19.117188 19.921875 19.746094 19.792969 20.359375 19.582031 C 20.429688 19.558594 20.503906 19.542969 20.570312 19.511719 C 20.664062 19.460938 20.738281 19.488281 20.816406 19.542969 C 21.035156 19.703125 21.175781 19.917969 21.25 20.175781 Z M 21.25 20.175781 " fill-opacity="1" fill-rule="nonzero"/><path fill="rgb(100%, 39.99939%, 0%)" d="M 14.5625 8.347656 C 14.621094 8.425781 14.605469 8.496094 14.570312 8.578125 C 14.328125 9.191406 14.074219 9.800781 13.855469 10.417969 C 13.59375 11.148438 13.398438 11.890625 13.289062 12.65625 C 13.246094 12.945312 13.21875 13.242188 13.203125 13.53125 C 13.152344 14.382812 13.242188 15.222656 13.445312 16.050781 C 13.664062 16.914062 14.015625 17.710938 14.570312 18.410156 C 14.578125 18.421875 14.578125 18.429688 14.597656 18.460938 C 14.4375 18.402344 14.292969 18.359375 14.152344 18.304688 C 13.402344 18.011719 12.765625 17.558594 12.234375 16.957031 C 11.332031 15.9375 10.785156 14.75 10.515625 13.425781 C 10.429688 13 10.371094 12.570312 10.359375 12.132812 C 10.351562 11.75 10.335938 11.363281 10.347656 10.980469 C 10.367188 10.316406 10.417969 9.65625 10.585938 9.007812 C 10.695312 8.582031 10.804688 8.152344 10.886719 7.71875 C 11.03125 6.960938 11.011719 6.199219 10.789062 5.449219 C 10.675781 5.074219 10.511719 4.722656 10.25 4.425781 C 10.238281 4.414062 10.230469 4.398438 10.21875 4.382812 C 10.222656 4.371094 10.230469 4.363281 10.234375 4.351562 C 10.457031 4.425781 10.683594 4.488281 10.902344 4.574219 C 11.4375 4.792969 11.902344 5.125 12.335938 5.511719 C 13.191406 6.277344 13.871094 7.1875 14.453125 8.167969 C 14.492188 8.230469 14.519531 8.292969 14.5625 8.347656 Z M 14.5625 8.347656 " fill-opacity="1" fill-rule="nonzero"/><path fill="rgb(1.959229%, 45.878601%, 0.389099%)" d="M 14.289062 19.140625 C 14.214844 19.242188 14.140625 19.332031 14.074219 19.433594 C 13.972656 19.589844 13.871094 19.75 13.777344 19.914062 C 13.695312 20.0625 13.648438 20.226562 13.664062 20.398438 C 13.695312 20.710938 13.722656 21.019531 13.753906 21.328125 C 13.761719 21.390625 13.78125 21.457031 13.804688 21.519531 C 13.820312 21.570312 13.808594 21.601562 13.757812 21.609375 C 13.53125 21.65625 13.3125 21.722656 13.085938 21.738281 C 12.136719 21.792969 11.292969 21.488281 10.523438 20.945312 C 10.285156 20.78125 10.0625 20.589844 9.816406 20.433594 C 9.453125 20.199219 9.050781 20.0625 8.621094 20.015625 C 8.429688 19.996094 8.238281 20.015625 8.050781 20.070312 C 8.027344 20.078125 8.003906 20.085938 7.957031 20.097656 C 7.980469 20.039062 7.996094 19.992188 8.015625 19.945312 C 8.164062 19.621094 8.402344 19.367188 8.671875 19.136719 C 8.960938 18.886719 9.285156 18.6875 9.628906 18.519531 C 9.671875 18.5 9.730469 18.492188 9.777344 18.5 C 10.015625 18.542969 10.257812 18.601562 10.5 18.640625 C 10.617188 18.65625 10.738281 18.640625 10.859375 18.632812 C 11.316406 18.597656 11.761719 18.492188 12.191406 18.335938 C 12.222656 18.324219 12.273438 18.339844 12.304688 18.355469 C 12.773438 18.617188 13.253906 18.839844 13.765625 19 C 13.933594 19.050781 14.105469 19.09375 14.289062 19.140625 Z M 14.289062 19.140625 " fill-opacity="1" fill-rule="nonzero"/><path fill="rgb(100%, 39.99939%, 0%)" d="M 11.429688 17.484375 C 11.359375 17.507812 11.300781 17.53125 11.238281 17.542969 C 10.519531 17.726562 9.828125 17.652344 9.164062 17.34375 C 8.585938 17.074219 8.117188 16.675781 7.695312 16.210938 C 7.300781 15.773438 6.960938 15.296875 6.667969 14.789062 C 6.210938 13.988281 5.90625 13.132812 5.789062 12.21875 C 5.75 11.90625 5.742188 11.585938 5.726562 11.273438 C 5.707031 10.8125 5.707031 10.347656 5.675781 9.890625 C 5.613281 8.933594 5.476562 7.988281 5.207031 7.0625 C 5.015625 6.417969 4.769531 5.792969 4.402344 5.222656 C 4.328125 5.105469 4.242188 4.988281 4.144531 4.847656 C 4.304688 4.859375 4.445312 4.859375 4.582031 4.875 C 5.035156 4.917969 5.476562 5.019531 5.90625 5.175781 C 6.40625 5.359375 6.875 5.605469 7.3125 5.90625 C 7.785156 6.222656 8.21875 6.582031 8.613281 6.988281 C 8.992188 7.378906 9.339844 7.796875 9.648438 8.242188 C 9.667969 8.277344 9.675781 8.324219 9.671875 8.363281 C 9.605469 8.824219 9.53125 9.28125 9.46875 9.742188 C 9.429688 10.046875 9.402344 10.351562 9.386719 10.65625 C 9.371094 10.945312 9.363281 11.238281 9.375 11.527344 C 9.414062 12.863281 9.628906 14.164062 10.128906 15.40625 C 10.390625 16.058594 10.730469 16.664062 11.179688 17.207031 C 11.257812 17.296875 11.339844 17.382812 11.429688 17.484375 Z M 11.429688 17.484375 " fill-opacity="1" fill-rule="nonzero"/><g fill="rgb(0%, 0%, 0%)" fill-opacity="1"><g transform="translate(42.687898, 12.845171)"><g><path d="M 4.816406 -2.636719 C 4.816406 -2.238281 4.601562 -2.023438 4.203125 -2.023438 L 3.40625 -2.023438 C 3.007812 -2.023438 2.792969 -2.238281 2.792969 -2.636719 L 2.792969 -3.804688 C 2.792969 -3.957031 2.699219 -4.050781 2.546875 -4.050781 L 1.011719 -4.050781 C 0.84375 -4.050781 0.765625 -3.957031 0.765625 -3.804688 L 0.765625 -2.210938 C 0.765625 -0.765625 1.535156 0 2.976562 0 L 4.695312 0 C 6.121094 0 6.902344 -0.765625 6.902344 -2.210938 L 6.902344 -12.027344 C 6.902344 -12.179688 6.8125 -12.273438 6.65625 -12.273438 L 5.0625 -12.273438 C 4.894531 -12.273438 4.816406 -12.179688 4.816406 -12.027344 Z M 4.816406 -2.636719 "/></g></g></g><g fill="rgb(0%, 0%, 0%)" fill-opacity="1"><g transform="translate(50.355189, 12.845171)"><g><path d="M 0.765625 -2.210938 C 0.765625 -0.765625 1.535156 0 2.976562 0 L 4.695312 0 C 6.136719 0 6.902344 -0.765625 6.902344 -2.210938 L 6.902344 -8.527344 C 6.902344 -9.972656 6.136719 -10.738281 4.695312 -10.738281 L 2.976562 -10.738281 C 1.535156 -10.738281 0.765625 -9.972656 0.765625 -8.527344 Z M 3.375 -1.980469 C 2.976562 -1.980469 2.761719 -2.179688 2.761719 -2.59375 L 2.761719 -8.144531 C 2.761719 -8.542969 2.976562 -8.757812 3.375 -8.757812 L 4.355469 -8.757812 C 4.753906 -8.757812 4.96875 -8.542969 4.96875 -8.144531 L 4.96875 -2.59375 C 4.96875 -2.179688 4.753906 -1.980469 4.355469 -1.980469 Z M 3.375 -1.980469 "/></g></g></g><g fill="rgb(0%, 0%, 0%)" fill-opacity="1"><g transform="translate(58.022481, 12.845171)"><g><path d="M 0.765625 -2.210938 C 0.765625 -0.765625 1.535156 0 2.976562 0 L 4.695312 0 C 6.121094 0 6.902344 -0.765625 6.902344 -2.210938 L 6.902344 -5.707031 C 6.902344 -5.875 6.8125 -5.953125 6.65625 -5.953125 L 4.171875 -5.953125 C 4.003906 -5.953125 3.925781 -5.875 3.925781 -5.707031 L 3.925781 -4.171875 C 3.925781 -4.019531 4.003906 -3.925781 4.171875 -3.925781 L 4.96875 -3.925781 L 4.96875 -2.59375 C 4.96875 -2.179688 4.753906 -1.980469 4.355469 -1.980469 L 3.375 -1.980469 C 2.976562 -1.980469 2.761719 -2.179688 2.761719 -2.59375 L 2.761719 -8.144531 C 2.761719 -8.542969 2.960938 -8.757812 3.375 -8.757812 L 4.355469 -8.757812 C 4.753906 -8.757812 4.96875 -8.542969 4.96875 -8.144531 L 4.96875 -7.394531 C 4.96875 -7.242188 5.046875 -7.148438 5.214844 -7.148438 L 6.65625 -7.148438 C 6.8125 -7.148438 6.902344 -7.242188 6.902344 -7.394531 L 6.902344 -8.527344 C 6.902344 -9.972656 6.121094 -10.738281 4.695312 -10.738281 L 2.976562 -10.738281 C 1.535156 -10.738281 0.765625 -9.972656 0.765625 -8.527344 Z M 0.765625 -2.210938 "/></g></g></g><g fill="rgb(0%, 0%, 0%)" fill-opacity="1"><g transform="translate(65.689772, 12.845171)"><g><path d="M 8.007812 0 C 8.191406 0 8.269531 -0.09375 8.222656 -0.261719 L 5.675781 -10.523438 C 5.644531 -10.675781 5.554688 -10.738281 5.414062 -10.738281 L 3.28125 -10.738281 C 3.144531 -10.738281 3.050781 -10.675781 3.023438 -10.523438 L 0.476562 -0.261719 C 0.429688 -0.09375 0.507812 0 0.675781 0 L 2.179688 0 C 2.316406 0 2.394531 -0.078125 2.421875 -0.214844 L 2.898438 -2.148438 L 5.785156 -2.148438 L 6.273438 -0.214844 C 6.304688 -0.078125 6.382812 0 6.519531 0 Z M 5.308594 -3.925781 L 3.375 -3.925781 L 4.339844 -8.101562 Z M 5.308594 -3.925781 "/></g></g></g><g fill="rgb(0%, 0%, 0%)" fill-opacity="1"><g transform="translate(74.384483, 12.845171)"><g><path d="M 6.902344 -8.527344 C 6.902344 -9.972656 6.136719 -10.738281 4.695312 -10.738281 L 1.011719 -10.738281 C 0.859375 -10.738281 0.765625 -10.644531 0.765625 -10.492188 L 0.765625 -0.246094 C 0.765625 -0.09375 0.859375 0 1.011719 0 L 2.515625 0 C 2.667969 0 2.761719 -0.09375 2.761719 -0.246094 L 2.761719 -3.238281 L 4.125 -3.238281 L 4.863281 -0.214844 C 4.894531 -0.078125 4.96875 0 5.125 0 L 6.628906 0 C 6.796875 0 6.886719 -0.09375 6.839844 -0.277344 L 6.042969 -3.574219 C 6.613281 -3.925781 6.902344 -4.554688 6.902344 -5.445312 Z M 2.761719 -5.214844 L 2.761719 -8.757812 L 4.296875 -8.757812 C 4.695312 -8.757812 4.910156 -8.542969 4.910156 -8.144531 L 4.910156 -5.828125 C 4.910156 -5.429688 4.695312 -5.214844 4.296875 -5.214844 Z M 2.761719 -5.214844 "/></g></g></g><g fill="rgb(0%, 0%, 0%)" fill-opacity="1"><g transform="translate(82.051774, 12.845171)"><g><path d="M 8.007812 0 C 8.191406 0 8.269531 -0.09375 8.222656 -0.261719 L 5.675781 -10.523438 C 5.644531 -10.675781 5.554688 -10.738281 5.414062 -10.738281 L 3.28125 -10.738281 C 3.144531 -10.738281 3.050781 -10.675781 3.023438 -10.523438 L 0.476562 -0.261719 C 0.429688 -0.09375 0.507812 0 0.675781 0 L 2.179688 0 C 2.316406 0 2.394531 -0.078125 2.421875 -0.214844 L 2.898438 -2.148438 L 5.785156 -2.148438 L 6.273438 -0.214844 C 6.304688 -0.078125 6.382812 0 6.519531 0 Z M 5.308594 -3.925781 L 3.375 -3.925781 L 4.339844 -8.101562 Z M 5.308594 -3.925781 "/></g></g></g><g fill="rgb(0%, 0%, 0%)" fill-opacity="1"><g transform="translate(90.746486, 12.845171)"><g><path d="M 7.179688 -10.738281 C 6.996094 -10.738281 6.886719 -10.644531 6.839844 -10.476562 L 5.140625 -3.636719 L 3.4375 -10.476562 C 3.390625 -10.644531 3.28125 -10.738281 3.097656 -10.738281 L 1.074219 -10.738281 C 0.875 -10.738281 0.765625 -10.628906 0.765625 -10.429688 L 0.765625 -0.308594 C 0.765625 -0.105469 0.875 0 1.074219 0 L 2.484375 0 C 2.683594 0 2.792969 -0.105469 2.792969 -0.308594 L 2.792969 -6.335938 L 2.898438 -6.335938 L 4.339844 -0.261719 C 4.386719 -0.09375 4.496094 0 4.679688 0 L 5.582031 0 C 5.769531 0 5.875 -0.09375 5.921875 -0.261719 L 7.363281 -6.335938 L 7.472656 -6.335938 L 7.472656 -0.308594 C 7.472656 -0.105469 7.578125 0 7.777344 0 L 9.203125 0 C 9.402344 0 9.511719 -0.105469 9.511719 -0.308594 L 9.511719 -10.429688 C 9.511719 -10.628906 9.402344 -10.738281 9.203125 -10.738281 Z M 7.179688 -10.738281 "/></g></g></g><g fill="rgb(0%, 0%, 0%)" fill-opacity="1"><g transform="translate(101.012887, 12.845171)"><g/></g></g><g fill="rgb(0%, 0%, 0%)" fill-opacity="1"><g transform="translate(54.784622, 33.478284)"><g><path d="M 0.765625 -0.246094 C 0.765625 -0.09375 0.859375 0 1.011719 0 L 2.609375 0 C 2.777344 0 2.851562 -0.09375 2.851562 -0.246094 L 2.851562 -4.109375 L 4.695312 -4.109375 C 6.136719 -4.109375 6.902344 -4.894531 6.902344 -6.320312 L 6.902344 -10.0625 C 6.902344 -11.503906 6.136719 -12.273438 4.695312 -12.273438 L 1.011719 -12.273438 C 0.859375 -12.273438 0.765625 -12.179688 0.765625 -12.027344 Z M 2.851562 -6.136719 L 2.851562 -10.246094 L 4.203125 -10.246094 C 4.617188 -10.246094 4.816406 -10.03125 4.816406 -9.632812 L 4.816406 -6.75 C 4.816406 -6.367188 4.617188 -6.136719 4.203125 -6.136719 Z M 2.851562 -6.136719 "/></g></g></g><g fill="rgb(0%, 0%, 0%)" fill-opacity="1"><g transform="translate(62.451913, 33.478284)"><g><path d="M 8.007812 0 C 8.191406 0 8.269531 -0.09375 8.222656 -0.261719 L 5.675781 -10.523438 C 5.644531 -10.675781 5.554688 -10.738281 5.414062 -10.738281 L 3.28125 -10.738281 C 3.144531 -10.738281 3.050781 -10.675781 3.023438 -10.523438 L 0.476562 -0.261719 C 0.429688 -0.09375 0.507812 0 0.675781 0 L 2.179688 0 C 2.316406 0 2.394531 -0.078125 2.421875 -0.214844 L 2.898438 -2.148438 L 5.785156 -2.148438 L 6.273438 -0.214844 C 6.304688 -0.078125 6.382812 0 6.519531 0 Z M 5.308594 -3.925781 L 3.375 -3.925781 L 4.339844 -8.101562 Z M 5.308594 -3.925781 "/></g></g></g><g fill="rgb(0%, 0%, 0%)" fill-opacity="1"><g transform="translate(71.146624, 33.478284)"><g><path d="M 6.351562 -10.738281 C 6.519531 -10.738281 6.597656 -10.644531 6.597656 -10.492188 L 6.597656 -8.957031 C 6.597656 -8.804688 6.519531 -8.714844 6.351562 -8.714844 L 4.570312 -8.714844 L 4.570312 -0.246094 C 4.570312 -0.078125 4.496094 0 4.324219 0 L 2.730469 0 C 2.578125 0 2.484375 -0.078125 2.484375 -0.246094 L 2.484375 -8.714844 L 0.707031 -8.714844 C 0.550781 -8.714844 0.460938 -8.804688 0.460938 -8.957031 L 0.460938 -10.492188 C 0.460938 -10.644531 0.550781 -10.738281 0.707031 -10.738281 Z M 6.351562 -10.738281 "/></g></g></g><g fill="rgb(0%, 0%, 0%)" fill-opacity="1"><g transform="translate(78.200532, 33.478284)"><g><path d="M 6.886719 -10.492188 C 6.886719 -10.644531 6.828125 -10.738281 6.640625 -10.738281 L 0.996094 -10.738281 C 0.859375 -10.738281 0.765625 -10.644531 0.765625 -10.492188 L 0.765625 -0.246094 C 0.765625 -0.09375 0.859375 0 0.996094 0 L 6.640625 0 C 6.828125 0 6.886719 -0.09375 6.886719 -0.246094 L 6.886719 -1.78125 C 6.886719 -1.949219 6.828125 -2.023438 6.640625 -2.023438 L 2.851562 -2.023438 L 2.851562 -4.296875 L 5.738281 -4.296875 C 5.890625 -4.296875 5.984375 -4.386719 5.984375 -4.554688 L 5.984375 -6.074219 C 5.984375 -6.242188 5.890625 -6.335938 5.738281 -6.335938 L 2.851562 -6.335938 L 2.851562 -8.699219 L 6.640625 -8.699219 C 6.828125 -8.699219 6.886719 -8.804688 6.886719 -8.957031 Z M 6.886719 -10.492188 "/></g></g></g><g fill="rgb(0%, 0%, 0%)" fill-opacity="1"><g transform="translate(85.852492, 33.478284)"><g><path d="M 2.851562 -2.023438 L 5.890625 -2.023438 C 6.058594 -2.023438 6.136719 -1.933594 6.136719 -1.78125 L 6.136719 -0.246094 C 6.136719 -0.078125 6.058594 0 5.890625 0 L 1.011719 0 C 0.859375 0 0.765625 -0.078125 0.765625 -0.246094 L 0.765625 -10.492188 C 0.765625 -10.644531 0.859375 -10.738281 1.011719 -10.738281 L 2.609375 -10.738281 C 2.777344 -10.738281 2.851562 -10.644531 2.851562 -10.492188 Z M 2.851562 -2.023438 "/></g></g></g></svg>